<?xml version="1.0" standalone="no"?>
<!DOCTYPE svg PUBLIC "-//W3C//DTD SVG 20010904//EN"
 "http://www.w3.org/TR/2001/REC-SVG-20010904/DTD/svg10.dtd">
<svg version="1.0" xmlns="http://www.w3.org/2000/svg"
 width="1080.000000pt" height="1080.000000pt" viewBox="0 0 1080.000000 1080.000000"
 preserveAspectRatio="xMidYMid meet">
<metadata>
Created by potrace 1.14, written by Peter Selinger 2001-2017
</metadata>
<g transform="translate(0.000000,1080.000000) scale(0.100000,-0.100000)"
fill="#000000" stroke="none">
<path d="M5186 10793 c-4 -5 -20 -9 -34 -9 -15 -1 -29 -3 -32 -4 -13 -6 -36
-5 -51 2 -9 4 -20 4 -24 0 -6 -6 -74 -12 -137 -13 -10 0 -18 -4 -18 -8 0 -4
-7 -8 -15 -8 -8 0 -15 5 -15 11 0 6 -4 5 -9 -3 -6 -9 -11 -10 -15 -2 -5 8 -13
8 -27 1 -10 -6 -25 -10 -32 -9 -27 3 -38 -1 -31 -13 6 -9 3 -9 -9 0 -9 8 -22
10 -28 6 -7 -4 -35 -9 -63 -11 -74 -5 -76 -6 -76 -13 0 -10 -64 -6 -72 5 -5 6
-8 4 -8 -5 0 -10 -10 -17 -25 -18 -14 -1 -36 -2 -50 -3 -15 -1 -22 -6 -18 -13
3 -6 0 -6 -7 1 -11 10 -17 9 -32 -4 -13 -12 -18 -13 -18 -3 0 9 -7 7 -22 -6
-12 -10 -18 -14 -15 -7 4 6 3 14 -2 17 -5 3 -12 -1 -15 -10 -3 -8 -11 -12 -16
-9 -6 4 -16 3 -23 -2 -7 -5 -19 -9 -27 -8 -8 1 -26 -3 -40 -8 -33 -12 -68 -18
-107 -20 -22 -1 -29 -5 -22 -13 6 -8 -1 -10 -26 -9 -19 2 -35 -2 -35 -7 0 -5
-4 -7 -8 -4 -5 3 -19 -1 -33 -8 -13 -7 -30 -11 -37 -8 -6 2 -12 -1 -12 -8 0
-6 -4 -8 -10 -5 -5 3 -10 0 -10 -7 0 -11 -2 -11 -9 0 -7 11 -11 11 -22 -1 -8
-8 -25 -12 -37 -11 -12 2 -22 -1 -22 -8 0 -6 -3 -9 -6 -6 -3 3 -29 -2 -57 -12
-28 -10 -56 -16 -61 -13 -5 4 -6 1 -2 -5 5 -8 -1 -12 -15 -12 -12 0 -31 -8
-42 -17 -12 -11 -17 -12 -12 -4 6 10 4 12 -6 5 -8 -5 -21 -9 -29 -9 -8 0 -14
-5 -13 -10 1 -6 -6 -11 -15 -12 -32 -2 -50 -9 -68 -23 -11 -9 -15 -10 -10 -3
5 9 2 11 -8 7 -9 -3 -16 -11 -16 -17 0 -6 -3 -7 -7 -4 -3 4 -13 1 -21 -6 -13
-10 -14 -9 -7 3 6 11 3 10 -12 -3 -11 -9 -23 -14 -26 -11 -4 4 -9 0 -13 -9 -3
-9 -14 -14 -25 -12 -10 2 -19 0 -19 -6 0 -5 -9 -9 -20 -9 -10 0 -23 -6 -27
-12 -4 -7 -12 -13 -18 -14 -25 -1 -65 -17 -65 -26 0 -5 -4 -7 -9 -3 -5 3 -12
1 -16 -5 -4 -6 -11 -8 -16 -5 -5 4 -9 2 -9 -3 0 -11 -38 -25 -59 -22 -7 1 -10
-3 -7 -9 3 -5 -7 -12 -24 -16 -18 -4 -27 -11 -23 -18 4 -6 0 -8 -10 -4 -8 3
-21 -1 -28 -9 -7 -8 -18 -13 -26 -10 -7 3 -13 -1 -13 -9 0 -9 -6 -12 -15 -9
-8 4 -15 1 -15 -6 0 -6 -4 -9 -9 -5 -5 3 -13 0 -16 -6 -4 -5 -14 -8 -22 -5 -8
3 -11 1 -8 -4 3 -5 -12 -17 -34 -26 -23 -9 -39 -19 -37 -23 3 -4 -5 -8 -17 -8
-12 -1 -26 -8 -32 -15 -5 -7 -17 -14 -25 -16 -8 -2 -23 -11 -32 -19 -10 -9
-18 -12 -18 -8 0 5 -6 0 -14 -11 -8 -10 -18 -16 -21 -12 -4 4 -15 -1 -24 -12
-9 -11 -23 -20 -31 -22 -8 -2 -22 -10 -30 -18 -8 -8 -22 -16 -30 -18 -8 -2
-20 -10 -26 -18 -6 -7 -16 -14 -22 -14 -6 0 -14 -9 -17 -20 -4 -11 -11 -17
-17 -14 -6 4 -5 10 3 15 10 6 10 9 2 9 -7 0 -17 -9 -23 -20 -6 -11 -15 -18
-19 -15 -5 3 -12 -2 -15 -11 -4 -9 -9 -14 -12 -11 -3 3 -14 -2 -23 -11 -36
-34 -59 -50 -65 -45 -3 3 -8 -2 -12 -11 -3 -9 -12 -16 -19 -16 -6 0 -20 -9
-30 -20 -10 -11 -22 -17 -26 -14 -5 3 -6 -3 -2 -12 4 -11 2 -15 -4 -11 -6 4
-21 -2 -33 -13 -13 -11 -27 -20 -32 -20 -4 0 -8 -7 -8 -15 0 -8 -3 -14 -7 -14
-22 4 -33 -2 -27 -13 5 -8 2 -9 -10 -5 -9 4 -15 3 -13 -1 3 -4 -1 -13 -9 -20
-8 -7 -14 -10 -14 -6 0 4 -10 -4 -22 -18 -13 -14 -31 -28 -41 -31 -11 -4 -15
-12 -11 -18 4 -8 3 -9 -5 -5 -6 4 -14 1 -17 -8 -3 -8 -14 -18 -25 -21 -11 -4
-17 -11 -14 -16 4 -5 -1 -9 -9 -9 -8 0 -19 -6 -23 -13 -4 -8 -22 -24 -40 -37
-18 -13 -29 -28 -26 -33 3 -6 1 -7 -5 -3 -6 3 -19 -5 -30 -19 -11 -14 -25 -25
-31 -25 -6 0 -11 -4 -11 -10 0 -10 -70 -83 -86 -88 -5 -2 -8 -8 -7 -13 2 -5
-2 -9 -8 -9 -15 0 -39 -26 -32 -34 4 -3 -1 -6 -10 -6 -9 0 -17 -4 -17 -10 0
-14 -37 -50 -52 -50 -6 0 -9 -3 -5 -6 3 -3 -17 -28 -45 -55 -28 -27 -47 -49
-42 -49 4 0 -2 -7 -14 -16 -12 -8 -19 -21 -16 -27 4 -7 4 -9 -1 -5 -7 6 -31
-10 -32 -22 0 -3 -19 -24 -42 -48 -23 -23 -39 -47 -36 -52 3 -5 0 -12 -6 -16
-8 -4 -9 -3 -5 4 4 7 2 12 -3 12 -6 0 -11 -7 -11 -15 0 -8 -5 -15 -12 -15 -6
0 -9 -3 -6 -6 3 -3 -9 -20 -27 -39 -19 -18 -31 -36 -28 -39 4 -3 1 -6 -6 -6
-7 0 -9 -4 -6 -10 3 -5 -1 -10 -10 -10 -11 0 -15 -5 -11 -15 3 -8 0 -14 -7
-12 -7 1 -11 -6 -11 -15 1 -10 -1 -16 -5 -13 -7 4 -41 -30 -41 -41 0 -3 -6
-12 -12 -19 -30 -34 -38 -45 -32 -45 4 0 -3 -8 -14 -19 -12 -10 -22 -22 -22
-27 0 -4 -12 -21 -27 -37 -16 -17 -21 -27 -13 -23 8 4 4 -2 -9 -13 -13 -12
-21 -27 -18 -35 4 -11 1 -13 -10 -9 -11 4 -14 3 -9 -5 4 -7 1 -15 -7 -17 -7
-3 -20 -21 -27 -40 -7 -19 -18 -31 -23 -28 -5 3 -8 0 -5 -8 4 -13 0 -21 -30
-54 -7 -8 -11 -15 -7 -15 4 0 -1 -7 -9 -16 -9 -8 -16 -22 -16 -30 0 -8 -5 -12
-10 -9 -6 3 -10 -1 -10 -10 0 -9 -9 -28 -20 -42 -11 -14 -17 -29 -14 -34 3 -5
-2 -9 -10 -9 -10 0 -13 -7 -11 -20 2 -11 0 -18 -6 -15 -5 4 -9 1 -9 -4 0 -22
-2 -26 -15 -34 -8 -4 -12 -14 -9 -21 3 -7 -2 -16 -10 -19 -9 -4 -16 -13 -16
-22 0 -8 -4 -15 -10 -15 -5 0 -7 -7 -4 -15 4 -8 2 -15 -4 -15 -5 0 -13 -11
-16 -25 -4 -14 -11 -25 -16 -25 -5 0 -7 -7 -4 -15 4 -8 -1 -17 -9 -21 -9 -3
-13 -12 -10 -20 3 -8 0 -14 -6 -14 -6 0 -11 -9 -11 -20 0 -11 -7 -23 -15 -26
-8 -4 -12 -11 -9 -16 4 -6 2 -13 -4 -17 -5 -3 -12 -15 -14 -26 -1 -11 -9 -26
-16 -33 -7 -8 -10 -18 -7 -23 4 -5 1 -9 -5 -9 -7 0 -10 -6 -8 -12 3 -7 -1 -19
-9 -26 -7 -8 -11 -18 -8 -23 4 -5 1 -9 -6 -9 -7 0 -9 -3 -6 -7 4 -3 2 -12 -4
-20 -6 -7 -8 -13 -3 -13 4 0 -1 -7 -12 -16 -10 -8 -12 -13 -4 -9 8 4 6 -1 -4
-9 -11 -9 -14 -16 -8 -16 7 0 12 -5 12 -11 0 -5 -4 -7 -10 -4 -5 3 -11 1 -11
-4 -2 -16 -4 -23 -17 -54 -7 -16 -12 -35 -12 -43 0 -8 -4 -14 -10 -14 -5 0 -7
-7 -4 -15 4 -8 1 -15 -5 -15 -6 0 -10 -3 -10 -7 1 -5 1 -10 -1 -13 -1 -3 -4
-16 -6 -30 -2 -13 -9 -27 -16 -31 -6 -4 -7 -12 -4 -18 4 -6 3 -11 -1 -11 -5 0
-9 -10 -10 -22 -1 -11 -8 -25 -15 -29 -7 -5 -9 -9 -5 -9 4 0 3 -9 -3 -20 -8
-15 -8 -20 2 -20 9 0 9 -3 2 -8 -15 -10 -28 -44 -25 -66 2 -10 -2 -15 -7 -12
-5 3 -12 -5 -14 -19 -3 -15 -1 -25 6 -25 6 0 4 -5 -4 -10 -8 -5 -11 -10 -6
-10 6 0 2 -6 -9 -13 -10 -8 -15 -19 -11 -26 4 -6 2 -19 -6 -28 -11 -14 -11
-16 1 -8 11 6 10 2 -2 -15 -13 -19 -14 -27 -4 -39 8 -10 8 -13 1 -8 -7 4 -15
0 -18 -9 -4 -10 -2 -13 7 -9 6 4 4 0 -5 -8 -10 -8 -15 -16 -13 -19 3 -3 0 -18
-6 -34 -6 -16 -13 -42 -15 -59 -6 -51 -7 -55 -18 -55 -6 0 -4 -5 4 -10 13 -9
13 -10 0 -10 -13 0 -13 -1 0 -10 12 -8 12 -10 1 -10 -8 0 -11 -7 -8 -20 3 -11
2 -22 -3 -25 -4 -3 -10 -14 -13 -25 -3 -11 -2 -18 3 -15 4 2 1 -14 -6 -36 -8
-22 -11 -45 -8 -51 4 -7 2 -8 -4 -4 -7 4 -12 2 -12 -3 0 -6 6 -11 13 -11 7 0
8 -3 2 -8 -11 -7 -17 -27 -18 -52 0 -8 -5 -18 -11 -22 -7 -5 -7 -8 2 -8 7 0
10 -5 7 -10 -11 -18 -18 -63 -19 -117 -1 -28 -5 -49 -10 -46 -5 4 -6 -6 -2
-21 5 -20 3 -26 -5 -21 -8 6 -8 2 0 -13 8 -15 7 -23 -4 -32 -8 -7 -12 -17 -8
-24 11 -17 12 -36 3 -36 -9 0 -8 -19 3 -37 4 -6 3 -14 -3 -18 -6 -4 -8 -11 -5
-16 4 -5 0 -9 -7 -9 -8 0 -9 -3 -3 -8 16 -11 15 -44 0 -38 -9 3 -12 0 -8 -9 3
-8 10 -12 17 -8 6 4 5 -1 -3 -10 -7 -9 -10 -17 -6 -17 4 0 2 -6 -4 -14 -9 -10
-9 -16 -1 -21 7 -5 8 -11 1 -19 -6 -7 -6 -17 -1 -26 5 -8 5 -21 1 -29 -4 -9
-7 -40 -6 -68 2 -36 -1 -51 -9 -46 -6 3 -5 0 2 -8 15 -16 16 -33 1 -23 -8 5
-8 1 0 -14 14 -27 14 -35 -1 -26 -9 5 -9 2 1 -9 10 -13 10 -17 1 -17 -10 0
-10 -3 0 -15 9 -10 9 -15 1 -15 -6 0 -11 -5 -11 -11 0 -5 3 -8 8 -6 4 3 7 -8
8 -24 1 -15 -3 -26 -7 -23 -9 5 -5 -19 7 -50 6 -15 4 -17 -7 -11 -12 8 -12 6
0 -8 10 -13 10 -17 1 -17 -9 0 -10 -3 -1 -13 8 -10 7 -17 -2 -27 -7 -7 -7 -10
-1 -7 7 4 11 -9 12 -41 0 -26 2 -71 5 -99 3 -38 1 -51 -7 -46 -7 4 -6 1 2 -9
6 -8 12 -26 12 -39 -1 -24 8 -126 13 -164 2 -11 6 -26 10 -33 6 -8 3 -10 -10
-6 -17 5 -17 5 0 -9 17 -14 24 -33 8 -23 -4 3 -6 -6 -3 -19 2 -14 8 -25 14
-25 5 0 4 -9 -2 -20 -8 -14 -8 -20 0 -20 6 0 9 -4 6 -9 -4 -5 0 -12 6 -14 9
-4 9 -6 2 -6 -8 -1 -9 -12 -4 -38 5 -20 7 -41 4 -45 -3 -4 -1 -8 5 -8 7 0 7
-8 1 -25 -7 -18 -6 -23 3 -19 9 3 12 -6 12 -31 -1 -19 1 -35 4 -35 3 0 7 -12
8 -27 3 -50 7 -73 14 -73 3 0 5 -16 4 -35 -1 -19 3 -35 8 -35 5 0 7 -7 3 -15
-3 -8 -1 -15 5 -15 6 0 6 -6 0 -19 -8 -14 -7 -22 4 -31 7 -6 12 -20 10 -31 -2
-10 0 -19 5 -19 5 0 9 -8 9 -17 2 -46 6 -63 14 -63 4 0 5 -5 2 -10 -4 -6 -1
-17 5 -25 7 -8 10 -21 7 -29 -3 -8 -2 -16 4 -18 5 -2 11 -18 13 -35 6 -41 14
-55 28 -47 7 5 8 2 2 -7 -13 -21 -14 -39 -1 -39 5 0 7 -3 4 -7 -4 -3 -2 -12 3
-19 6 -6 10 -16 8 -20 -1 -5 6 -34 17 -64 11 -30 20 -57 20 -60 10 -41 21 -69
32 -86 8 -12 13 -26 12 -30 -3 -20 2 -35 10 -30 4 3 7 -6 5 -19 -1 -14 2 -23
7 -19 5 3 9 -6 9 -20 0 -14 5 -26 10 -26 6 0 9 -3 9 -7 -4 -24 2 -53 10 -49 5
3 11 -1 14 -8 3 -8 1 -17 -6 -20 -9 -3 -9 -5 1 -5 6 -1 12 -8 12 -16 0 -8 6
-15 13 -15 8 0 7 -4 -3 -10 -10 -6 -11 -10 -3 -10 7 0 15 -11 19 -25 3 -14 10
-25 15 -25 5 0 6 -6 3 -14 -3 -8 0 -17 5 -21 6 -3 9 -11 6 -16 -4 -5 -1 -9 4
-9 6 0 11 -9 11 -20 0 -10 8 -24 17 -29 14 -8 15 -10 3 -11 -10 0 -11 -3 -4
-8 13 -8 47 -72 39 -72 -3 0 -1 -9 5 -20 6 -11 15 -18 20 -15 6 3 7 -1 4 -9
-3 -9 -1 -16 6 -16 6 0 8 -5 5 -11 -4 -6 1 -17 11 -25 11 -9 12 -12 4 -8 -11
6 -10 2 3 -13 9 -11 14 -23 10 -26 -3 -4 -1 -7 5 -7 7 0 12 -7 12 -15 0 -8 5
-15 11 -15 6 0 9 -7 5 -15 -3 -8 -2 -15 2 -15 8 0 51 -81 53 -98 0 -4 10 -17
21 -29 12 -13 18 -23 14 -23 -4 0 2 -10 14 -22 11 -12 20 -30 20 -40 0 -11 5
-16 10 -13 6 3 10 1 10 -5 0 -7 14 -32 30 -57 17 -24 30 -48 30 -54 0 -5 5 -9
10 -9 6 0 10 -6 10 -13 0 -7 9 -23 20 -35 12 -12 18 -22 15 -22 -3 0 2 -11 11
-25 9 -14 21 -22 27 -18 5 3 7 1 3 -5 -3 -6 0 -17 8 -25 8 -8 12 -17 9 -21 -4
-3 0 -6 7 -6 7 0 11 -3 7 -6 -3 -3 8 -20 24 -36 16 -17 29 -36 29 -42 0 -6 9
-18 20 -26 11 -8 20 -20 20 -27 0 -6 8 -17 17 -22 10 -6 14 -11 10 -11 -4 0 3
-12 17 -27 14 -15 23 -30 20 -35 -3 -5 0 -7 8 -6 7 2 12 -5 12 -15 -1 -10 0
-16 3 -14 6 7 54 -40 57 -55 1 -8 23 -35 49 -61 26 -25 48 -50 49 -54 3 -15
26 -32 33 -25 5 4 5 2 1 -5 -4 -7 23 -42 67 -87 41 -42 69 -77 63 -80 -6 -2 0
-5 13 -5 13 -1 22 -4 19 -7 -4 -3 7 -18 23 -33 16 -15 25 -32 21 -36 -4 -5 -1
-5 6 -1 7 4 15 1 18 -8 3 -9 13 -16 22 -16 8 0 13 -3 9 -6 -7 -8 17 -34 32
-34 6 0 11 -4 11 -8 0 -5 16 -25 35 -45 19 -20 35 -34 35 -31 0 3 11 -6 24
-18 13 -13 22 -26 20 -29 -2 -4 6 -9 17 -12 13 -4 18 -10 13 -18 -4 -7 -3 -10
3 -6 12 7 53 -28 53 -46 0 -7 4 -6 10 3 8 13 10 12 10 -3 0 -11 9 -21 20 -24
11 -3 18 -8 16 -12 -5 -11 33 -41 39 -31 4 6 12 10 18 10 8 0 7 -3 -2 -9 -10
-7 -11 -13 -2 -27 6 -11 11 -13 11 -6 0 12 14 2 65 -46 13 -13 28 -21 34 -18
5 4 13 1 17 -5 4 -8 3 -9 -4 -5 -7 4 -12 3 -12 -3 0 -5 8 -12 18 -15 9 -3 29
-17 45 -31 15 -15 31 -23 36 -20 5 3 13 0 17 -6 5 -8 2 -10 -7 -5 -8 4 -5 0 6
-8 11 -9 28 -23 38 -31 9 -8 22 -15 27 -15 6 0 10 -5 10 -10 0 -6 4 -9 9 -8 5
2 18 -8 30 -21 12 -13 21 -19 21 -13 0 7 13 -2 28 -18 16 -16 32 -27 35 -23 4
3 7 0 7 -7 0 -7 3 -10 6 -7 4 4 14 -1 23 -11 9 -9 26 -23 39 -29 12 -7 32 -19
45 -25 12 -7 25 -17 29 -23 4 -5 11 -10 15 -11 21 -2 42 -17 37 -25 -3 -5 -2
-9 3 -8 24 4 43 -2 37 -12 -4 -7 -1 -10 7 -7 8 3 19 0 26 -6 33 -29 41 -34 47
-29 3 4 6 1 6 -5 0 -10 25 -22 43 -21 5 0 14 -7 21 -17 8 -11 18 -14 26 -9 9
5 11 4 6 -3 -6 -11 6 -16 27 -13 4 0 7 -3 7 -9 0 -5 7 -10 15 -10 8 0 15 -5
15 -11 0 -5 4 -8 9 -5 5 3 11 -1 15 -9 3 -8 12 -12 19 -9 8 3 21 -2 30 -10 8
-8 17 -12 21 -9 3 4 6 1 6 -6 0 -7 4 -10 9 -6 5 3 12 1 16 -5 3 -5 15 -10 25
-10 10 0 20 -5 22 -10 2 -6 13 -12 25 -13 12 0 21 -4 21 -7 -2 -18 4 -23 12
-10 8 13 10 12 10 -3 0 -10 5 -15 10 -12 6 3 10 1 10 -6 0 -7 3 -9 7 -6 3 4
17 0 31 -9 18 -12 23 -12 17 -3 -3 8 0 6 8 -3 8 -10 24 -18 36 -18 11 0 21 -5
21 -11 0 -5 4 -7 10 -4 5 3 10 1 10 -5 0 -7 7 -9 16 -6 9 4 24 0 33 -8 9 -8
23 -16 31 -18 8 -2 21 -10 28 -18 8 -8 11 -10 8 -3 -4 8 4 6 24 -3 16 -9 35
-12 41 -8 7 4 10 3 6 -2 -3 -5 6 -14 19 -21 18 -8 22 -8 17 0 -4 8 -2 8 9 0 8
-7 18 -10 21 -6 4 3 7 1 7 -6 0 -7 5 -9 10 -6 6 3 10 1 10 -4 0 -6 14 -11 30
-11 17 0 30 -5 30 -10 0 -6 3 -9 8 -9 18 3 33 -2 28 -10 -3 -4 5 -7 19 -6 13
2 29 -3 36 -11 9 -12 15 -12 27 -2 13 10 14 10 8 1 -5 -9 2 -13 23 -13 17 0
31 -4 31 -8 0 -5 7 -9 15 -10 8 -1 22 -3 30 -4 8 -1 15 -6 15 -11 0 -6 3 -7 7
-4 3 4 17 0 30 -8 16 -11 23 -12 23 -3 0 9 3 9 12 0 7 -7 23 -12 36 -12 13 0
21 -4 18 -8 -3 -5 12 -8 34 -8 21 1 36 -2 33 -6 -2 -5 -1 -8 4 -9 12 -1 46 -7
63 -11 8 -2 21 -8 29 -12 10 -7 12 -5 6 3 -5 9 1 8 21 -2 16 -8 35 -12 43 -9
8 2 11 0 8 -5 -4 -6 9 -9 33 -8 25 1 37 -2 33 -8 -4 -6 2 -8 15 -5 13 4 22 1
22 -5 0 -7 5 -5 10 3 7 12 10 12 10 1 0 -7 6 -11 15 -7 8 3 15 1 15 -5 0 -6 4
-8 9 -4 5 3 12 1 16 -5 4 -7 12 -7 25 0 13 7 21 7 25 0 3 -5 19 -10 36 -10 16
0 29 -5 29 -12 0 -8 3 -9 8 -3 8 12 32 13 50 2 6 -5 16 -6 21 -2 5 3 13 0 17
-6 5 -8 3 -9 -6 -4 -9 5 -11 4 -6 -4 6 -9 11 -9 21 -1 10 8 20 8 33 1 13 -7
22 -7 30 1 9 9 12 9 12 1 0 -6 8 -10 18 -9 9 2 20 -2 24 -8 5 -7 8 -6 8 3 0
11 5 10 20 -4 20 -18 21 -18 14 1 -6 16 -5 17 7 7 8 -6 29 -10 47 -8 17 1 32
-2 32 -7 0 -6 6 -8 14 -5 7 3 19 0 25 -6 8 -8 11 -8 11 2 0 7 5 9 12 5 18 -12
72 -11 87 0 11 8 13 8 7 -2 -6 -10 1 -12 33 -9 23 2 41 1 41 -3 0 -4 10 -6 23
-5 12 1 28 -3 36 -9 9 -7 12 -7 9 0 -4 6 6 10 28 11 18 1 32 -3 29 -7 -6 -10
50 -4 67 6 7 4 8 3 4 -4 -4 -7 -2 -12 3 -12 6 0 11 5 11 10 0 7 6 7 18 1 13
-7 22 -7 29 0 8 8 13 7 18 -1 5 -8 11 -7 23 2 12 10 14 10 8 1 -4 -7 -2 -13 3
-13 6 0 11 6 11 13 0 7 3 8 8 2 8 -12 32 -13 49 -2 6 4 14 3 18 -3 4 -7 12 -7
24 0 10 5 21 7 23 4 10 -9 48 -13 43 -3 -7 10 8 12 19 2 10 -11 46 -11 39 0
-4 6 2 8 14 5 11 -3 28 -1 38 5 13 7 16 6 10 -3 -6 -9 -3 -9 13 -1 14 7 23 8
27 1 4 -6 12 -7 18 -3 7 4 35 8 62 9 88 2 130 8 137 19 5 6 11 6 19 -2 8 -8
18 -9 31 -2 13 7 18 6 18 -3 1 -9 3 -8 9 2 6 10 25 15 59 15 28 0 48 3 46 7
-3 4 9 5 27 1 26 -5 30 -3 24 8 -8 12 -6 12 8 0 9 -7 17 -9 17 -4 0 5 14 9 31
8 19 -1 33 4 36 12 4 10 8 11 13 3 4 -7 15 -8 31 -2 13 5 36 9 51 8 14 -1 24
2 21 7 -2 4 7 6 21 3 15 -3 26 0 26 6 0 6 3 8 6 5 4 -3 15 -2 25 3 11 6 20 6
23 1 4 -5 23 -1 43 9 28 13 43 15 57 8 13 -7 16 -7 12 1 -7 10 8 15 42 14 6
-1 12 3 12 8 0 5 7 6 15 2 9 -3 21 2 28 11 10 14 18 15 40 7 18 -7 26 -7 22
-1 -6 9 10 14 43 13 6 -1 12 2 12 6 0 7 15 11 53 12 9 0 17 4 17 8 0 4 6 8 13
9 39 3 68 10 75 17 4 4 0 5 -8 0 -8 -5 -12 -5 -8 0 4 4 24 9 44 11 21 2 42 8
47 13 5 5 16 7 25 3 11 -4 14 -1 10 9 -4 12 1 14 25 13 17 -1 40 4 52 12 12 8
25 11 28 7 4 -3 7 -1 7 6 0 7 5 9 10 6 6 -3 10 -2 10 3 0 5 10 8 23 8 12 -1
21 4 20 10 -1 8 6 10 19 6 13 -3 19 -1 15 5 -5 7 0 9 13 6 11 -3 20 0 20 6 0
6 3 10 8 10 20 -3 32 2 26 12 -5 8 -1 8 14 0 15 -8 23 -8 27 0 7 10 47 30 74
35 7 1 18 7 24 13 6 6 21 11 34 11 13 0 26 6 29 14 3 8 12 12 20 9 8 -3 14 0
14 6 0 6 9 11 19 11 11 0 23 5 26 10 4 6 14 9 23 8 9 -2 16 3 14 10 -1 6 1 11
5 11 23 -4 43 2 38 11 -3 6 1 7 9 4 9 -3 16 -1 16 6 0 6 5 8 10 5 6 -3 10 -1
10 4 0 6 3 10 8 9 14 -4 52 13 52 23 0 6 5 7 10 4 6 -3 10 -1 10 6 0 7 3 9 7
6 3 -4 15 1 26 10 11 10 17 12 13 5 -7 -11 -4 -11 12 -1 12 7 18 18 15 24 -4
5 -2 7 2 2 5 -4 19 0 32 8 13 9 23 13 23 10 0 -4 7 1 16 9 8 9 19 14 24 11 4
-3 11 2 14 11 4 9 9 14 13 11 3 -4 17 3 31 13 13 11 31 20 38 20 8 0 14 5 14
10 0 6 6 10 14 10 7 0 19 7 26 15 7 8 16 12 21 9 5 -3 9 3 10 13 0 11 3 13 6
5 4 -9 10 -7 22 7 10 12 21 18 24 14 4 -3 9 1 13 10 3 9 12 13 21 10 10 -4 14
-2 10 3 -3 6 19 24 49 40 29 16 54 35 54 42 0 7 5 10 12 6 6 -4 17 1 25 12 8
10 17 18 21 18 4 -1 6 3 4 8 -2 6 6 8 18 5 11 -3 18 -2 15 3 -4 7 42 44 56 45
3 0 13 7 22 15 33 30 46 40 54 40 5 0 15 9 23 19 7 11 17 18 22 15 4 -3 8 2 8
11 0 9 4 14 10 10 5 -3 20 5 32 17 13 13 26 22 31 20 4 -1 7 5 7 14 0 8 5 12
10 9 6 -3 10 -1 10 4 0 6 7 11 16 11 8 0 12 5 9 10 -3 6 1 10 10 10 11 0 15 5
11 16 -3 8 -2 13 3 9 13 -7 42 5 35 16 -3 5 0 9 6 9 6 0 24 14 40 30 17 17 30
29 30 26 0 -2 21 16 47 40 25 24 50 44 55 44 5 0 7 4 4 9 -6 9 22 26 37 23 4
-1 6 1 5 5 -2 14 14 43 22 38 4 -2 16 7 26 20 10 14 24 25 31 25 7 0 10 7 6
17 -5 12 -2 15 9 10 15 -5 34 17 30 35 -1 4 6 4 15 1 11 -4 14 -3 9 5 -4 7 -2
12 4 12 6 0 8 5 5 10 -4 6 -3 9 2 8 9 -3 93 78 87 84 -2 3 7 11 21 18 14 7 25
18 25 23 0 5 21 29 48 54 26 25 47 48 47 51 0 4 9 16 20 28 37 39 60 69 57 77
-1 4 5 7 13 7 8 0 15 5 15 11 0 7 10 20 22 30 11 11 18 19 14 19 -4 0 4 11 18
23 14 13 23 27 20 30 -3 3 4 11 16 17 12 6 20 14 17 16 -3 3 6 17 19 31 13 14
21 30 17 36 -4 6 -1 7 6 3 8 -5 14 0 18 13 3 12 9 21 14 21 5 0 9 7 9 16 0 8
5 12 10 9 6 -3 10 0 10 8 0 7 9 23 20 35 11 12 20 26 20 32 0 6 5 8 12 4 7 -5
8 -3 4 5 -5 7 0 18 10 26 11 8 15 15 11 15 -5 0 -2 6 5 14 22 23 41 54 37 60
-2 3 6 13 19 21 12 9 20 21 17 26 -4 5 -1 9 6 9 7 0 10 3 6 6 -3 4 -1 12 6 20
29 33 37 44 37 54 0 5 5 10 12 10 6 0 9 3 5 6 -3 3 5 24 19 45 13 21 24 43 24
49 0 5 4 10 10 10 5 0 12 11 16 25 3 14 11 25 16 25 6 0 8 9 5 19 -3 14 -1 18
9 14 12 -5 19 13 15 40 0 4 6 7 15 7 9 0 12 5 8 12 -4 6 1 17 10 24 10 7 17
15 17 18 -1 21 23 65 32 59 5 -3 7 -1 3 5 -3 6 -2 13 4 17 6 4 8 11 5 16 -4 5
-1 9 5 9 6 0 8 5 4 11 -3 6 -3 14 2 18 12 8 54 95 54 110 0 6 5 11 11 11 5 0
8 4 4 9 -3 5 -1 12 5 16 6 4 8 11 5 16 -4 5 -1 9 4 9 6 0 11 9 11 19 0 11 5
23 10 26 6 3 10 15 10 26 0 10 5 19 10 19 6 0 10 11 10 25 0 14 5 25 10 25 6
0 10 9 10 19 0 11 5 23 10 26 6 3 10 17 10 31 0 14 4 22 10 19 6 -4 10 7 10
24 0 17 5 31 11 31 5 0 8 4 4 9 -3 5 1 16 9 24 10 9 11 18 5 26 -5 6 -6 9 -2
6 8 -6 34 65 28 76 -3 4 1 9 9 12 9 4 12 14 9 26 -3 13 -1 21 6 21 7 0 9 5 6
10 -3 5 -2 10 3 10 5 0 8 11 7 25 -2 14 2 28 7 32 7 4 8 1 3 -8 -5 -8 -4 -11
1 -6 4 4 9 18 9 30 0 12 5 31 11 42 6 11 10 30 9 42 -1 12 2 20 6 18 4 -3 9 2
13 10 3 8 0 15 -7 15 -8 0 -9 2 -1 8 10 6 29 77 26 94 -1 5 3 8 9 8 5 0 8 4 4
9 -3 5 -1 12 5 16 6 3 8 17 6 30 -3 14 1 26 10 29 11 4 12 10 4 25 -7 13 -7
22 0 26 6 4 8 11 5 16 -4 5 -1 9 5 9 6 0 9 4 6 9 -4 5 0 12 6 14 10 4 10 6 0
6 -10 1 -10 6 -2 21 6 11 8 25 5 30 -3 6 -1 10 4 10 6 0 11 5 11 11 0 5 -4 8
-9 4 -5 -3 -3 8 5 25 9 16 13 34 9 40 -3 5 -1 10 5 10 6 0 9 4 6 9 -4 5 -2 21
4 35 7 19 6 26 -3 26 -7 0 -8 3 -2 8 6 4 12 18 13 32 2 14 8 30 12 35 5 6 5
17 0 25 -5 9 -5 19 1 27 6 7 8 17 4 23 -3 5 -2 10 4 10 6 0 8 7 4 16 -3 9 0
20 8 25 12 7 12 10 1 18 -8 4 -14 12 -14 16 0 4 6 12 14 16 10 7 10 9 -2 9
-13 0 -13 1 0 10 13 9 13 11 0 20 -13 8 -13 10 2 10 11 0 15 5 12 14 -3 8 0
17 5 21 6 3 8 12 4 18 -10 17 -11 47 -2 47 5 0 4 12 -1 26 -7 18 -7 23 2 18 8
-5 9 0 6 14 -4 12 -2 22 2 22 4 0 6 9 3 20 -3 11 0 26 6 34 9 10 9 16 1 21 -6
4 -9 13 -6 20 2 7 -1 18 -7 25 -9 10 -9 11 1 6 10 -6 14 1 14 24 0 3 -3 16 -7
29 -4 14 -3 21 2 18 5 -4 10 0 10 8 0 8 -5 15 -11 15 -5 0 -1 7 10 16 10 8 13
13 7 9 -8 -4 -13 0 -13 10 0 10 5 14 13 9 9 -5 9 -4 0 6 -9 9 -9 19 -2 33 8
14 8 18 0 13 -6 -4 -11 -3 -11 3 0 5 4 12 8 15 5 3 9 20 10 38 1 23 -2 28 -8
18 -6 -9 -10 -10 -10 -3 0 6 4 15 10 18 6 3 10 11 10 16 0 6 -6 7 -12 3 -10
-6 -10 -4 0 8 9 11 10 18 2 23 -5 3 -10 12 -10 18 0 7 4 6 10 -3 8 -13 10 -13
10 2 0 9 -6 19 -12 21 -10 4 -10 6 0 6 6 1 12 6 12 12 0 5 -5 7 -12 3 -7 -5
-8 -3 -3 6 8 13 9 101 2 162 -4 27 -2 36 6 32 8 -4 7 -2 0 7 -7 7 -13 19 -13
27 0 8 5 10 13 6 6 -4 4 2 -6 13 -12 14 -15 23 -7 28 5 3 7 12 3 18 -12 20
-12 37 0 37 8 0 8 3 2 8 -15 10 -17 82 -3 82 7 0 3 7 -8 15 -12 9 -14 14 -5
15 11 0 10 5 -2 24 -9 13 -13 27 -10 30 10 10 12 36 3 36 -10 0 -8 20 3 37 6
9 3 11 -9 6 -14 -5 -15 -3 -5 15 9 17 9 22 -1 22 -9 0 -9 3 2 10 8 5 10 10 3
10 -6 0 -9 9 -6 20 3 11 1 20 -3 20 -5 0 -9 23 -8 50 0 28 -3 50 -7 50 -4 0
-6 9 -4 20 2 11 0 20 -5 20 -9 0 -8 26 3 36 3 3 -1 16 -9 28 -8 13 -11 25 -8
29 4 3 3 14 -1 24 -4 10 -7 29 -6 42 2 13 -2 21 -7 17 -6 -4 -8 2 -5 14 3 12
0 20 -7 20 -10 0 -10 3 0 15 8 9 8 15 2 15 -6 0 -11 8 -11 18 -1 17 -8 63 -11
72 -1 3 -2 9 -1 14 1 4 -2 13 -7 20 -4 6 -7 21 -6 34 0 12 -2 22 -6 22 -6 0
-8 7 -12 50 -1 11 -6 20 -11 20 -4 0 -5 4 -2 10 3 5 -1 24 -10 41 -12 23 -13
29 -3 23 10 -6 10 -4 -1 9 -7 9 -10 17 -6 17 4 0 0 11 -8 24 -12 17 -13 26 -4
35 7 7 7 11 1 11 -6 0 -17 19 -23 43 -7 23 -18 48 -25 56 -9 12 -8 13 4 6 12
-7 13 -6 3 7 -7 8 -10 18 -6 21 3 4 1 7 -4 7 -6 0 -10 11 -8 25 1 14 -2 28 -8
32 -6 4 -7 1 -2 -8 5 -8 4 -11 -1 -6 -5 5 -9 14 -10 20 -2 35 -18 77 -28 77
-6 0 -4 5 4 10 10 6 11 10 3 10 -7 0 -13 12 -13 26 0 14 -4 23 -10 19 -6 -4
-10 5 -10 20 0 22 -15 60 -30 75 -3 3 -6 16 -8 29 -1 13 -10 30 -20 37 -13 10
-13 13 -3 14 11 0 11 4 -2 18 -10 10 -17 29 -17 41 0 12 -4 19 -10 16 -5 -3
-11 1 -11 9 -3 36 -6 41 -19 38 -10 -2 -11 0 -3 10 8 10 8 18 -3 32 -8 11 -14
29 -14 40 0 17 -2 18 -10 6 -8 -12 -10 -11 -10 6 0 35 -29 96 -42 88 -7 -4 -8
-3 -4 5 4 6 2 18 -4 26 -7 8 -9 15 -4 15 5 0 3 4 -3 8 -7 4 -14 18 -16 30 -2
12 -7 25 -12 29 -4 5 -5 1 0 -7 5 -8 4 -12 0 -7 -5 4 -10 18 -12 30 -2 12 -8
24 -13 25 -6 2 -10 9 -10 16 0 8 -9 25 -20 38 -10 14 -16 28 -12 32 3 4 0 11
-8 16 -8 5 -15 15 -15 22 -1 7 -7 12 -14 10 -7 -1 -10 2 -7 7 8 13 -4 42 -15
36 -4 -3 -6 4 -4 15 2 11 0 18 -6 15 -7 -5 -14 9 -7 18 6 7 -37 45 -46 40 -6
-4 -5 1 3 10 7 9 9 17 4 17 -4 0 -17 17 -28 38 -10 20 -28 47 -39 60 -11 12
-16 22 -11 22 4 0 -2 8 -13 19 -12 10 -22 23 -22 28 0 5 -9 19 -20 31 -11 12
-20 24 -20 27 1 21 -1 25 -9 21 -5 -3 -12 5 -15 19 -4 14 -13 25 -22 25 -8 0
-13 4 -10 9 4 5 -5 23 -19 39 -14 16 -25 35 -25 41 0 6 -7 11 -16 11 -8 0 -13
4 -10 9 3 5 -6 21 -19 35 -14 15 -22 33 -19 39 4 7 4 9 -1 5 -8 -8 -35 15 -35
31 0 6 -9 15 -20 21 -11 6 -18 15 -15 21 4 5 -1 12 -9 15 -9 3 -16 13 -16 21
0 8 -4 11 -10 8 -5 -3 -10 1 -10 9 0 8 -8 20 -17 25 -10 6 -14 11 -8 11 5 0
-10 18 -33 39 -23 22 -42 46 -42 54 0 14 -26 32 -42 29 -4 -1 -4 6 -1 15 4 11
3 14 -5 9 -7 -4 -12 -2 -12 4 0 15 -26 41 -34 33 -3 -4 -6 0 -6 7 0 7 -13 26
-30 42 -16 15 -30 33 -30 38 0 6 -7 13 -15 16 -8 4 -12 11 -8 17 3 5 1 7 -5 3
-13 -8 -44 22 -36 35 3 5 2 9 -3 8 -4 -1 -15 -1 -23 0 -13 1 -13 2 0 11 13 8
13 10 -1 10 -9 0 -20 7 -23 16 -3 8 -10 13 -15 9 -5 -3 -12 4 -16 15 -3 11
-11 20 -16 20 -6 0 -7 5 -3 12 4 6 3 8 -4 4 -6 -3 -18 4 -26 16 -9 12 -16 18
-16 13 0 -5 -8 2 -17 15 -9 14 -24 30 -33 37 -9 6 -42 37 -73 67 -31 31 -64
56 -72 56 -9 0 -14 4 -11 8 3 5 -6 16 -20 26 -13 10 -37 32 -54 47 -28 27 -42
34 -63 30 -5 -1 -6 3 -3 8 9 13 -24 43 -40 37 -7 -3 -11 0 -9 7 3 7 -13 23
-35 37 -22 13 -40 28 -40 32 0 4 -6 8 -14 8 -8 0 -17 7 -20 16 -4 9 -9 14 -13
10 -3 -3 -13 3 -20 14 -8 11 -18 18 -22 16 -4 -3 -18 6 -29 19 -12 14 -32 25
-44 25 -19 0 -20 2 -8 10 13 8 12 10 -2 10 -10 0 -18 5 -18 11 0 5 -4 8 -9 5
-5 -3 -21 7 -37 22 -15 15 -24 20 -20 12 4 -8 0 -6 -9 5 -9 11 -19 20 -23 20
-11 1 -66 37 -79 52 -6 8 -20 15 -32 16 -12 1 -21 7 -21 15 0 7 -4 10 -10 7
-5 -3 -10 -1 -10 5 0 6 -4 8 -10 5 -5 -3 -10 -1 -10 6 0 7 -3 10 -6 6 -4 -3
-13 1 -21 9 -8 8 -19 11 -25 8 -7 -4 -8 -2 -4 4 6 10 -7 17 -17 10 -2 -2 -11
5 -21 15 -10 9 -21 15 -26 12 -4 -3 -11 2 -14 11 -4 9 -13 14 -22 10 -8 -3
-12 -2 -9 4 3 6 -3 10 -15 10 -12 0 -19 4 -16 8 3 5 -12 14 -32 22 -20 7 -43
19 -50 27 -8 8 -21 12 -29 9 -8 -3 -11 -1 -8 4 3 6 0 10 -8 10 -8 0 -20 6 -26
14 -7 8 -22 13 -33 11 -11 -3 -18 -1 -14 2 8 8 -148 85 -177 88 -10 1 -24 11
-32 21 -11 15 -15 16 -15 4 -1 -12 -4 -11 -15 4 -7 10 -18 15 -24 12 -5 -3
-16 1 -24 9 -9 8 -22 15 -31 15 -8 0 -18 5 -21 10 -4 6 -10 8 -15 5 -4 -3 -11
2 -14 11 -5 13 -9 14 -21 4 -8 -7 -15 -8 -15 -4 0 5 -9 15 -21 22 -17 11 -20
11 -13 0 6 -10 5 -11 -8 -1 -8 7 -18 10 -22 6 -3 -4 -12 2 -20 12 -8 11 -20
16 -29 12 -8 -3 -21 1 -28 9 -7 8 -18 13 -25 10 -8 -3 -20 2 -29 10 -9 9 -22
13 -30 10 -8 -3 -15 -1 -15 4 0 4 -13 11 -30 15 -16 4 -30 12 -30 18 0 7 -4 6
-10 -3 -6 -10 -10 -11 -10 -2 0 6 -3 11 -7 11 -21 -3 -33 2 -27 12 4 8 0 8
-15 0 -12 -7 -21 -8 -21 -2 0 5 -11 8 -25 7 -13 -2 -22 0 -20 4 3 5 -3 11 -12
14 -9 4 -20 1 -24 -5 -4 -8 -9 -4 -14 10 -5 18 -9 20 -21 10 -11 -9 -14 -9
-14 1 0 7 -8 10 -20 7 -14 -3 -20 0 -20 10 0 12 -3 13 -14 4 -10 -8 -16 -9
-21 -1 -3 5 -15 10 -26 10 -10 0 -19 6 -19 13 0 8 -4 7 -10 -3 -5 -8 -10 -10
-10 -5 0 6 -12 12 -27 13 -16 1 -30 7 -31 13 -3 6 -8 6 -17 -1 -9 -8 -15 -8
-20 0 -3 5 -17 10 -31 10 -14 0 -23 3 -21 8 3 4 -8 7 -24 8 -18 1 -26 -3 -23
-10 3 -6 -4 0 -15 13 -12 13 -21 19 -21 14 0 -5 -7 -10 -15 -10 -8 0 -15 3
-15 7 0 3 -14 7 -31 8 -17 1 -39 6 -48 11 -10 6 -23 5 -34 0 -12 -7 -17 -6
-17 2 0 6 -7 9 -15 5 -8 -3 -15 -1 -15 4 0 6 -5 10 -11 10 -5 0 -7 -4 -4 -10
3 -6 -1 -7 -9 -4 -9 3 -16 11 -16 18 0 7 -3 7 -8 1 -9 -13 -53 -15 -45 -2 4 6
-1 8 -10 4 -10 -4 -17 -2 -17 5 0 7 -4 7 -14 -1 -11 -9 -16 -9 -22 0 -5 8 -3
9 6 4 9 -5 11 -4 6 3 -5 9 -13 9 -28 1 -12 -6 -23 -7 -27 -2 -3 5 -13 8 -21 8
-8 -1 -23 3 -34 8 -13 6 -16 6 -12 -2 11 -17 -5 -13 -27 7 -11 9 -17 12 -14 5
5 -8 0 -11 -13 -10 -11 1 -20 6 -20 12 0 6 -3 7 -8 0 -9 -12 -42 -16 -42 -4 0
9 -33 4 -52 -7 -6 -4 -8 -3 -4 4 4 7 -4 10 -23 10 -17 -1 -37 5 -46 12 -13 11
-14 10 -8 -6 5 -15 4 -17 -8 -8 -8 6 -22 10 -31 9 -10 -2 -21 1 -24 7 -4 6 -9
5 -14 -3 -6 -9 -12 -10 -22 -1 -8 6 -19 7 -28 2 -8 -5 -21 -5 -30 0 -11 6 -21
5 -28 -2 -9 -9 -12 -9 -12 0 0 6 -7 9 -17 5 -9 -4 -14 -2 -11 3 4 5 -4 9 -17
9 -13 0 -21 -4 -17 -9 3 -6 -3 -6 -14 -2 -32 13 -55 15 -49 5 7 -10 -8 -13
-18 -2 -10 10 -106 10 -100 0 3 -5 -4 -6 -15 -3 -39 13 -62 15 -57 5 8 -12 3
-11 -30 1 -14 5 -24 6 -21 1 3 -5 -1 -11 -9 -15 -8 -3 -17 0 -21 6 -5 7 -2 8
6 3 9 -5 11 -4 6 3 -8 14 -10 14 -20 5z"/>
<path d="M6710 169 c0 -5 5 -7 10 -4 6 3 10 8 10 11 0 2 -4 4 -10 4 -5 0 -10
-5 -10 -11z"/>
</g>
</svg>
